<?xml version="1.0" standalone="no"?>
<!DOCTYPE svg PUBLIC "-//W3C//DTD SVG 20010904//EN"
 "http://www.w3.org/TR/2001/REC-SVG-20010904/DTD/svg10.dtd">
<svg version="1.0" xmlns="http://www.w3.org/2000/svg"
 width="227.000000pt" height="67.000000pt" viewBox="0 0 227.000000 67.000000"
 preserveAspectRatio="xMidYMid meet">

<g transform="translate(0.000000,67.000000) scale(0.100000,-0.100000)"
fill="#000000" stroke="none">
<path d="M456 633 c-20 -43 -20 -43 7 -43 13 0 35 13 50 28 l27 29 -34 10
c-32 10 -34 9 -50 -24z"/>
<path d="M0 426 l0 -146 35 0 c33 0 35 2 35 34 0 33 0 34 55 38 34 3 62 12 75
23 44 40 44 130 -1 171 -17 15 -40 20 -110 22 l-89 4 0 -146z m155 34 c0 -34
-1 -35 -42 -38 l-43 -3 0 41 0 41 43 -3 c41 -3 42 -4 42 -38z"/>
<path d="M388 428 l-65 -143 35 -3 c24 -2 40 2 48 12 16 22 122 23 130 1 4
-10 20 -15 45 -15 21 0 39 2 39 4 0 2 -29 66 -64 142 -47 103 -68 140 -83 142
-16 2 -30 -21 -85 -140z m112 -45 c0 -8 -12 -13 -30 -13 -35 0 -35 -1 -14 48
l16 37 14 -30 c7 -16 13 -36 14 -42z"/>
<path d="M750 425 l0 -145 35 0 c34 0 35 1 35 40 0 35 3 40 23 40 15 0 28 -11
42 -38 18 -34 24 -37 68 -40 l47 -3 -29 46 -30 47 20 31 c34 56 19 126 -32
153 -17 8 -58 14 -104 14 l-75 0 0 -145z m155 55 c9 -30 -12 -50 -51 -50 -32
0 -34 2 -34 35 0 34 1 35 39 35 31 0 41 -4 46 -20z"/>
<path d="M1172 433 c-34 -76 -62 -141 -62 -145 0 -15 71 -8 76 7 9 21 129 21
138 0 5 -15 76 -22 76 -7 -1 4 -29 68 -63 142 -47 99 -68 136 -83 138 -16 2
-30 -22 -82 -135z m108 -45 c0 -13 -8 -18 -30 -18 -35 0 -34 -3 -14 46 l16 38
14 -24 c7 -14 13 -33 14 -42z"/>
<path d="M1530 425 l0 -145 35 0 35 0 0 60 c0 33 3 60 7 60 3 0 19 -15 34 -32
l27 -33 36 34 36 35 0 -62 0 -62 40 0 40 0 0 145 c0 118 -3 145 -14 145 -8 0
-42 -28 -75 -62 l-61 -63 -56 63 c-31 34 -62 62 -70 62 -11 0 -14 -27 -14
-145z"/>
<path d="M2010 532 c-79 -79 -60 -208 36 -248 105 -44 214 25 214 134 0 97
-56 152 -155 152 -53 0 -60 -3 -95 -38z m147 -47 c29 -21 38 -66 19 -103 -24
-47 -66 -55 -110 -21 -20 16 -26 29 -26 60 0 68 63 102 117 64z"/>
<path d="M650 60 c0 -27 5 -50 10 -50 6 0 10 7 10 15 0 8 9 15 20 15 10 0 23
8 29 17 15 27 -5 53 -39 53 -29 0 -30 -1 -30 -50z m50 15 c0 -8 -7 -15 -15
-15 -8 0 -15 7 -15 15 0 8 7 15 15 15 8 0 15 -7 15 -15z"/>
<path d="M780 60 c0 -27 5 -50 10 -50 6 0 10 7 10 15 0 19 19 19 26 0 4 -8 12
-15 18 -15 10 0 14 53 7 93 0 4 -17 7 -36 7 l-35 0 0 -50z m50 14 c0 -17 -22
-14 -28 4 -2 7 3 12 12 12 9 0 16 -7 16 -16z"/>
<path d="M910 60 l0 -50 35 0 c19 0 35 5 35 10 0 6 -9 10 -20 10 -11 0 -20 5
-20 10 0 6 7 10 15 10 8 0 15 5 15 10 0 6 -7 10 -15 10 -8 0 -15 5 -15 10 0 6
7 10 15 10 8 0 15 5 15 10 0 6 -13 10 -30 10 -29 0 -30 -1 -30 -50z"/>
<path d="M1034 96 c-9 -24 3 -46 26 -46 11 0 20 -5 20 -11 0 -7 -10 -9 -26 -5
-19 5 -25 3 -22 -6 7 -21 50 -22 65 -2 15 21 1 44 -28 44 -11 0 -19 5 -19 11
0 7 10 9 26 5 19 -5 25 -3 22 6 -7 20 -57 22 -64 4z"/>
<path d="M1160 60 c0 -49 1 -50 30 -50 17 0 30 5 30 10 0 6 -9 10 -20 10 -27
0 -25 16 3 24 l22 7 -25 11 c-25 11 -25 11 -2 15 33 6 27 23 -8 23 -29 0 -30
-1 -30 -50z"/>
<path d="M1280 61 c0 -28 5 -51 10 -51 6 0 10 12 10 27 l0 27 30 -29 30 -29 0
52 c0 51 -15 73 -22 31 l-3 -21 -27 22 -28 21 0 -50z"/>
<path d="M1410 100 c0 -5 7 -10 15 -10 11 0 15 -11 15 -40 0 -22 5 -40 10 -40
6 0 10 18 10 40 0 29 4 40 15 40 8 0 15 5 15 10 0 6 -18 10 -40 10 -22 0 -40
-4 -40 -10z"/>
<path d="M1540 70 c-11 -21 -20 -43 -20 -47 0 -4 22 -8 49 -9 l48 0 -20 48
c-11 26 -23 48 -28 48 -5 0 -18 -18 -29 -40z m40 -21 c0 -5 -4 -9 -10 -9 -5 0
-10 7 -10 16 0 8 5 12 10 9 6 -3 10 -10 10 -16z"/>
</g>
</svg>
